<svg width="30" height="30" viewBox="0 0 30 30" fill="none" xmlns="http://www.w3.org/2000/svg">
<path fill-rule="evenodd" clip-rule="evenodd" d="M13.0018 0.7721C14.2769 0.204547 15.7247 0.20455 16.9998 0.772095L16.6536 1.54982L16.9998 0.772096C18.3681 1.3812 20.3351 2.28726 21.778 3.0813L21.778 3.0813C23.3326 3.93686 25.2893 5.21846 26.6255 6.12012L26.1472 6.82885L26.6255 6.12013C27.156 6.47814 27.6058 6.93033 27.9575 7.44811C28.0312 7.51149 28.0953 7.58861 28.1456 7.67833C28.1866 7.75138 28.2157 7.82787 28.2335 7.90556C28.5352 8.47219 28.7285 9.09917 28.7945 9.75569C28.9453 11.255 29.1244 13.3721 29.1244 15C29.1244 16.6279 28.9453 18.745 28.7945 20.2443C28.7284 20.9016 28.5348 21.5292 28.2325 22.0963C28.1923 22.266 28.1005 22.4234 27.9636 22.5429C27.611 23.0644 27.1591 23.5198 26.6255 23.8798C25.2893 24.7815 23.3326 26.0632 21.778 26.9187C20.3351 27.7127 18.3682 28.6189 16.9997 29.2279L16.9997 29.228C15.7247 29.7954 14.2769 29.7954 13.0019 29.228L13.0019 29.2279C11.6334 28.6189 9.66634 27.7127 8.22345 26.9187L8.22339 26.9187C6.66873 26.063 4.71213 24.7813 3.37595 23.8799L3.3758 23.8798C2.84195 23.5195 2.38981 23.0638 2.03721 22.542C1.90129 22.4229 1.81004 22.2666 1.76975 22.0979C1.46696 21.5303 1.27299 20.9021 1.20682 20.2442C1.05602 18.7449 0.876953 16.6278 0.876953 15C0.876953 13.3722 1.05602 11.2551 1.20682 9.75584C1.27316 9.09631 1.46792 8.46657 1.77201 7.89787C1.79009 7.8271 1.8176 7.7575 1.85503 7.69077C1.90102 7.60878 1.9585 7.53731 2.02432 7.47723C2.37878 6.94736 2.83545 6.48497 3.37588 6.12029L3.37588 6.12029C4.71212 5.21862 6.66874 3.93697 8.22343 3.08139C9.66633 2.28731 11.6334 1.38122 13.0018 0.7721ZM3.02518 9.32738C2.9683 9.52127 2.92887 9.72184 2.90824 9.92697C2.75802 11.4205 2.58695 13.4644 2.58695 15C2.58695 16.4351 2.73635 18.3141 2.87852 19.773L7.5993 11.8929L3.02518 9.32738ZM8.47846 10.4254L3.91925 7.86823C4.04691 7.74789 4.18492 7.63726 4.33237 7.53776C5.66512 6.63844 7.56653 5.39474 9.0479 4.57951L9.0479 4.5795C10.2592 3.91289 11.8861 3.14947 13.1893 2.56185L8.47846 10.4254ZM8.80231 13.2122L4.11281 21.04H13.4919L8.80231 13.2122ZM16.5097 21.04L21.1995 13.2119L25.8891 21.04H16.5097ZM25.2406 22.75H15.8558L15.8558 27.8269C16.008 27.7846 16.1579 27.7309 16.3044 27.6657M14.1458 27.8269L14.1458 22.75H4.76081C6.05203 23.6129 7.71895 24.6891 9.04789 25.4206C10.4226 26.1771 12.3326 27.0584 13.6972 27.6657C13.8437 27.7309 13.9937 27.7846 14.1458 27.8269ZM27.1229 19.7721C27.265 18.3133 27.4144 16.4348 27.4144 15C27.4144 13.4644 27.2433 11.4204 27.0931 9.92682L27.0931 9.92675C27.0721 9.71782 27.0315 9.5136 26.9729 9.31635L22.3968 11.883L27.1229 19.7721ZM21.5176 10.4155L26.0736 7.86015C25.9483 7.74286 25.8132 7.6349 25.6689 7.53759C24.3363 6.63831 22.4349 5.39464 20.9536 4.57943C19.7425 3.91294 18.1159 3.14967 16.8128 2.56211L21.5176 10.4155ZM19.7055 10.7182H10.2964L15.001 2.86514L19.7055 10.7182ZM10.326 12.4282H19.6756L15.0008 20.2314L10.326 12.4282ZM25.2406 22.75C23.9495 23.6131 22.2824 24.6893 20.9536 25.4206C19.5789 26.1771 17.669 27.0584 16.3044 27.6657" fill="#E3EDF5"/>
</svg>
