<svg width="1032" height="235" viewBox="0 0 1032 235" fill="none" xmlns="http://www.w3.org/2000/svg">
<g clip-path="url(#clip0_1133_222)">
<path d="M121.577 234.356C121.577 234.356 121.684 234.356 121.719 234.356C124.763 234.32 127.024 231.462 126.49 228.48C125.813 224.787 125.012 221.272 125.155 217.278C129.338 109.482 173.803 100.002 188.168 36.784C189.753 29.7716 193.562 15.3918 193.081 4.22522C192.832 -1.59773 184.039 -1.31368 184.039 4.50927V14.9125C184.039 54.1108 144.522 100.765 130.602 137.372C127.469 145.609 126.027 153.989 123.571 162.332C122.876 164.694 124.283 168.866 121.043 168.581H119.957C116.717 168.866 118.124 164.694 117.429 162.332C114.973 153.989 113.531 145.591 110.398 137.372C96.4783 100.765 56.9614 54.1108 56.9614 14.9125V4.50927C56.9614 -1.31368 48.1679 -1.59773 47.9187 4.22522C47.4381 15.3918 51.2296 29.7716 52.8317 36.784C67.1788 100.002 111.644 109.482 115.845 217.278C116.005 221.343 115.169 224.876 114.492 228.639C113.958 231.569 116.183 234.285 119.156 234.356H119.227H121.595H121.577Z" fill="#E3EDF5"/>
<path d="M39.1787 10.4921C26.3802 45.8558 54.0065 81.5036 62.2837 101.014C44.0027 88.3385 22.1793 81.4504 0 79.7283L0.195805 85.7288C1.24603 88.7823 23.7814 92.0666 29.4241 93.8596C114.101 120.702 87.2577 217.42 106.785 223.509C109.33 122.69 63.5297 106.766 46.7795 46.3707L39.1787 10.4921Z" fill="#E3EDF5"/>
<path d="M5.34007 97.4812C6.31909 114.187 33.1799 101.369 60.468 133.91C67.25 142.005 67.2322 151.272 80.0663 152.515C69.5284 120.382 38.7693 99.5583 5.32227 97.499L5.34007 97.4812Z" fill="#E3EDF5"/>
<path d="M16.0379 115.216C13.2966 118.075 32.9483 133.644 35.7607 135.472C38.9292 137.532 56.5694 147.047 58.7411 145.378C49.9477 129.17 33.1085 120.418 16.0379 115.216Z" fill="#E3EDF5"/>
<path d="M201.821 10.4921C214.62 45.8558 186.994 81.5036 178.716 101.014C196.997 88.3385 218.821 81.4504 241 79.7283L240.804 85.7288C239.754 88.7823 217.219 92.0666 211.576 93.8596C126.899 120.702 153.742 217.42 134.215 223.509C131.67 122.69 177.47 106.766 194.22 46.3707L201.821 10.4921Z" fill="#E3EDF5"/>
<path d="M235.66 97.4812C234.681 114.187 207.82 101.369 180.532 133.91C173.75 142.005 173.768 151.272 160.934 152.515C171.471 120.382 202.231 99.5583 235.678 97.499L235.66 97.4812Z" fill="#E3EDF5"/>
<path d="M224.98 115.216C227.721 118.075 208.069 133.644 205.257 135.472C202.088 137.532 184.448 147.047 182.276 145.378C191.07 129.17 207.909 120.418 224.98 115.216Z" fill="#E3EDF5"/>
</g>
<path d="M1016.76 103.95L1010.97 90.8869H1013.32L1017.36 100.471L1021.41 90.8869H1023.75L1017.97 103.95H1016.76ZM1010.55 103.95V90.8869H1012.82V103.95H1010.55ZM1021.91 103.95V90.8869H1024.18V103.95H1021.91ZM1002.03 103.95V92.0228H1004.3V103.95H1002.03ZM998.052 92.8747V90.8869H1008.28V92.8747H998.052Z" fill="#9490B7"/>
<path d="M282.388 175L334.059 60.1754H355.056L406.891 175H384.582L340.129 71.4938H348.658L304.369 175H282.388ZM306.173 148.426L311.915 131.695H373.92L379.661 148.426H306.173ZM459.386 86.421C466.385 86.421 472.618 87.788 478.086 90.5219C483.663 93.2558 488.038 97.466 491.209 103.153C494.38 108.73 495.966 115.947 495.966 124.805V175H475.461V127.43C475.461 119.665 473.602 113.87 469.884 110.042C466.276 106.215 461.19 104.301 454.629 104.301C449.817 104.301 445.552 105.285 441.834 107.253C438.116 109.222 435.218 112.175 433.14 116.111C431.172 119.939 430.188 124.805 430.188 130.71V175H409.683V87.4052H429.204V111.026L425.759 103.809C428.821 98.2315 433.25 93.9666 439.046 91.014C444.951 87.952 451.731 86.421 459.386 86.421ZM545.106 176.148C535.483 176.148 528.046 173.688 522.797 168.767C517.548 163.736 514.923 156.355 514.923 146.622V68.0491H535.428V146.13C535.428 150.285 536.467 153.511 538.545 155.808C540.732 158.104 543.739 159.253 547.566 159.253C552.159 159.253 555.987 158.05 559.049 155.644L564.79 170.243C562.384 172.211 559.432 173.688 555.932 174.672C552.433 175.656 548.824 176.148 545.106 176.148ZM500.488 104.465V88.0613H558.885V104.465H500.488ZM610.105 176.148C600.372 176.148 591.842 174.235 584.515 170.407C577.298 166.47 571.666 161.112 567.62 154.332C563.683 147.551 561.715 139.842 561.715 131.203C561.715 122.454 563.628 114.744 567.456 108.074C571.393 101.294 576.751 95.9897 583.531 92.1622C590.421 88.3347 598.24 86.421 606.988 86.421C615.518 86.421 623.118 88.2801 629.789 91.9982C636.46 95.7163 641.709 100.965 645.536 107.746C649.364 114.526 651.278 122.509 651.278 131.695C651.278 132.57 651.223 133.554 651.114 134.647C651.114 135.741 651.059 136.78 650.95 137.764H577.954V124.149H640.123L632.086 128.414C632.195 123.384 631.156 118.955 628.969 115.127C626.782 111.3 623.774 108.292 619.947 106.105C616.229 103.918 611.909 102.825 606.988 102.825C601.958 102.825 597.529 103.918 593.701 106.105C589.983 108.292 587.031 111.354 584.843 115.291C582.766 119.119 581.727 123.657 581.727 128.906V132.187C581.727 137.436 582.93 142.084 585.336 146.13C587.741 150.176 591.131 153.293 595.506 155.48C599.88 157.667 604.91 158.761 610.597 158.761C615.518 158.761 619.947 157.995 623.884 156.464C627.821 154.933 631.32 152.527 634.382 149.246L645.372 161.877C641.436 166.47 636.46 170.024 630.445 172.539C624.54 174.945 617.76 176.148 610.105 176.148ZM661.131 175V53.2859H681.636V175H661.131ZM738.074 176.148C729.107 176.148 721.124 174.235 714.125 170.407C707.126 166.47 701.604 161.112 697.557 154.332C693.511 147.551 691.488 139.842 691.488 131.203C691.488 122.454 693.511 114.744 697.557 108.074C701.604 101.294 707.126 95.9897 714.125 92.1622C721.124 88.3347 729.107 86.421 738.074 86.421C747.151 86.421 755.188 88.3347 762.187 92.1622C769.295 95.9897 774.818 101.239 778.755 107.91C782.801 114.58 784.824 122.345 784.824 131.203C784.824 139.842 782.801 147.551 778.755 154.332C774.818 161.112 769.295 166.47 762.187 170.407C755.188 174.235 747.151 176.148 738.074 176.148ZM738.074 158.596C743.105 158.596 747.588 157.503 751.525 155.316C755.462 153.129 758.524 149.957 760.711 145.802C763.007 141.646 764.156 136.78 764.156 131.203C764.156 125.516 763.007 120.65 760.711 116.603C758.524 112.448 755.462 109.277 751.525 107.089C747.588 104.902 743.159 103.809 738.238 103.809C733.208 103.809 728.724 104.902 724.787 107.089C720.96 109.277 717.898 112.448 715.601 116.603C713.305 120.65 712.157 125.516 712.157 131.203C712.157 136.78 713.305 141.646 715.601 145.802C717.898 149.957 720.96 153.129 724.787 155.316C728.724 157.503 733.153 158.596 738.074 158.596ZM843.144 176.148C836.036 176.148 829.529 174.508 823.624 171.227C817.828 167.946 813.18 163.025 809.681 156.464C806.291 149.793 804.596 141.373 804.596 131.203C804.596 120.923 806.236 112.503 809.517 105.941C812.907 99.3798 817.5 94.5134 823.296 91.342C829.091 88.0613 835.708 86.421 843.144 86.421C851.783 86.421 859.383 88.2801 865.945 91.9982C872.615 95.7163 877.865 100.911 881.692 107.582C885.629 114.252 887.597 122.126 887.597 131.203C887.597 140.279 885.629 148.208 881.692 154.988C877.865 161.658 872.615 166.853 865.945 170.571C859.383 174.289 851.783 176.148 843.144 176.148ZM794.589 206.823V87.4052H814.11V108.074L813.453 131.367L815.094 154.66V206.823H794.589ZM840.847 158.596C845.768 158.596 850.143 157.503 853.97 155.316C857.907 153.129 861.024 149.957 863.32 145.802C865.617 141.646 866.765 136.78 866.765 131.203C866.765 125.516 865.617 120.65 863.32 116.603C861.024 112.448 857.907 109.277 853.97 107.089C850.143 104.902 845.768 103.809 840.847 103.809C835.926 103.809 831.497 104.902 827.56 107.089C823.624 109.277 820.507 112.448 818.21 116.603C815.914 120.65 814.766 125.516 814.766 131.203C814.766 136.78 815.914 141.646 818.21 145.802C820.507 149.957 823.624 153.129 827.56 155.316C831.497 157.503 835.926 158.596 840.847 158.596ZM938.374 176.148C928.641 176.148 920.111 174.235 912.784 170.407C905.567 166.47 899.935 161.112 895.889 154.332C891.952 147.551 889.984 139.842 889.984 131.203C889.984 122.454 891.897 114.744 895.725 108.074C899.662 101.294 905.02 95.9897 911.8 92.1622C918.69 88.3347 926.509 86.421 935.257 86.421C943.787 86.421 951.387 88.2801 958.058 91.9982C964.729 95.7163 969.978 100.965 973.806 107.746C977.633 114.526 979.547 122.509 979.547 131.695C979.547 132.57 979.492 133.554 979.383 134.647C979.383 135.741 979.328 136.78 979.219 137.764H906.223V124.149H968.392L960.355 128.414C960.464 123.384 959.425 118.955 957.238 115.127C955.051 111.3 952.044 108.292 948.216 106.105C944.498 103.918 940.178 102.825 935.257 102.825C930.227 102.825 925.798 103.918 921.97 106.105C918.252 108.292 915.3 111.354 913.113 115.291C911.035 119.119 909.996 123.657 909.996 128.906V132.187C909.996 137.436 911.199 142.084 913.605 146.13C916.01 150.176 919.401 153.293 923.775 155.48C928.149 157.667 933.18 158.761 938.866 158.761C943.787 158.761 948.216 157.995 952.153 156.464C956.09 154.933 959.589 152.527 962.651 149.246L973.642 161.877C969.705 166.47 964.729 170.024 958.714 172.539C952.809 174.945 946.029 176.148 938.374 176.148Z" fill="#E3EDF5"/>
<defs>
<clipPath id="clip0_1133_222">
<rect width="241" height="234.356" fill="white"/>
</clipPath>
</defs>
</svg>
